<svg width="88" height="88" viewBox="0 0 88 88" fill="none" xmlns="http://www.w3.org/2000/svg">
<rect width="88" height="88" fill="#E5E5E5"/>
<g id="Desktop" clip-path="url(#clip0_0_1)">
<rect width="1440" height="3536" transform="translate(-286 -920)" fill="white"/>
<g id="Features">
<g id="Group 42">
<g id="Group 25">
<g id="Group 24">
<circle id="Ellipse 1" opacity="0.1" cx="44" cy="44" r="44" fill="#8FA632"/>
</g>
</g>
</g>
<g id="Group 94">
<path id="Vector" d="M25.9426 33.9463C25.52 33.3845 25.8854 32.7088 26.759 32.437C27.0441 32.3483 27.3477 32.3145 27.6426 32.3275C27.9207 31.9299 28.409 31.5904 29.0669 31.3857C30.5541 30.9229 32.3431 31.3232 33.0627 32.2797C33.2366 32.5109 33.3315 32.7535 33.3552 32.9948C34.0191 32.9806 34.6652 33.2132 34.9732 33.6225C35.3898 34.1763 35.0296 34.8424 34.1684 35.1103C33.3864 35.3536 32.4619 35.1839 31.9864 34.736C31.8865 34.7772 31.7822 34.8154 31.6727 34.8495C30.4969 35.2154 29.133 35.0414 28.2575 34.48C27.3905 34.7366 26.3602 34.5013 25.9426 33.9463Z" fill="url(#paint0_linear_0_1)"/>
<path id="Vector_2" d="M26.3844 31.8887C27.1953 31.8887 27.8527 31.4659 27.8527 30.9444C27.8527 30.4228 27.1953 30 26.3844 30C25.5734 30 24.916 30.4228 24.916 30.9444C24.916 31.4659 25.5734 31.8887 26.3844 31.8887Z" fill="url(#paint1_linear_0_1)"/>
<path id="Vector_3" d="M35.1075 39.5046H31.566C31.0649 39.5046 30.6586 39.2433 30.6586 38.921V35.2879C30.6586 34.9656 31.0649 34.7043 31.566 34.7043H35.1075C35.6087 34.7043 36.0149 34.9656 36.0149 35.2879V38.921C36.015 39.2433 35.6088 39.5046 35.1075 39.5046Z" fill="url(#paint2_linear_0_1)"/>
<path id="Vector_4" d="M33.9855 49.8634H23.4101V58.592H33.9855V49.8634Z" fill="url(#paint3_linear_0_1)"/>
<path id="Vector_5" d="M34.4261 51.7337H23.4338C22.9834 51.7337 22.6609 51.454 22.7916 51.1767L23.8824 48.8659C23.9683 48.684 24.229 48.5597 24.5246 48.5597H34.4262V51.7337H34.4261Z" fill="url(#paint4_linear_0_1)"/>
<path id="Vector_6" d="M65.5355 49.8634H54.9601V58.592H65.5355V49.8634Z" fill="url(#paint5_linear_0_1)"/>
<path id="Vector_7" d="M65.5354 56.3052L58.4301 51.7354H54.9601V58.5919H65.5354V56.3052Z" fill="url(#paint6_linear_0_1)"/>
<path id="Vector_8" d="M54.5194 51.7337H65.5117C65.9621 51.7337 66.2846 51.454 66.1539 51.1767L65.0631 48.8659C64.9772 48.684 64.7165 48.5597 64.4209 48.5597H54.5194V51.7337Z" fill="url(#paint7_linear_0_1)"/>
<path id="Vector_9" d="M58.4358 40.5326V58.5917H30.5132V40.5326L44.4727 31.7303L58.4358 40.5326Z" fill="url(#paint8_linear_0_1)"/>
<path id="Vector_10" d="M30.5132 40.5326V41.5673L56.9839 58.5917H58.4358V40.5326L44.4727 31.7303L30.5132 40.5326Z" fill="url(#paint9_linear_0_1)"/>
<path id="Vector_11" d="M58.4358 45.9905V58.5919H49.6203L30.5132 46.3033V45.9905H58.4358Z" fill="url(#paint10_linear_0_1)"/>
<path id="Vector_12" d="M54.1214 58.5918H40.4653L32.9585 53.7639C32.628 53.6261 32.4081 53.387 32.4081 53.1158V49.2301C32.4081 48.8044 32.947 48.4578 33.6089 48.4578H37.9647C38.3874 48.4578 38.7592 48.5992 38.9734 48.8118L38.9408 48.8284L54.1214 58.5918Z" fill="url(#paint11_linear_0_1)"/>
<path id="Vector_13" d="M37.9647 53.4353H33.6093C33.3346 53.4353 33.112 53.2922 33.112 53.1155V49.2304C33.112 49.0537 33.3347 48.9105 33.6093 48.9105H37.9647C38.2394 48.9105 38.462 49.0538 38.462 49.2304V53.1155C38.4621 53.2922 38.2394 53.4353 37.9647 53.4353Z" fill="#503837"/>
<path id="Vector_14" d="M37.9647 53.8882H33.6093C32.947 53.8882 32.4081 53.5416 32.4081 53.1156V49.2305C32.4081 48.8045 32.947 48.4579 33.6093 48.4579H37.9647C38.627 48.4579 39.1659 48.8045 39.1659 49.2305V53.1156C39.166 53.5416 38.6271 53.8882 37.9647 53.8882ZM33.816 52.9826H37.7581V49.3633H33.816V52.9826Z" fill="white"/>
<path id="Vector_15" d="M58.4368 50.0605V58.5918H58.0083L50.5015 53.7639C50.17 53.6261 49.95 53.387 49.95 53.1158V49.2301C49.95 48.8044 50.489 48.4578 51.1518 48.4578H55.5066C55.9293 48.4578 56.3011 48.5992 56.5153 48.8118L56.5326 48.8204L56.521 48.8285L58.4368 50.0605Z" fill="url(#paint12_linear_0_1)"/>
<path id="Vector_16" d="M55.507 53.4353H51.1516C50.8769 53.4353 50.6543 53.2922 50.6543 53.1155V49.2304C50.6543 49.0537 50.8769 48.9105 51.1516 48.9105H55.507C55.7817 48.9105 56.0043 49.0538 56.0043 49.2304V53.1155C56.0044 53.2922 55.7817 53.4353 55.507 53.4353Z" fill="#503837"/>
<path id="Vector_17" d="M55.507 53.8882H51.1516C50.4893 53.8882 49.9504 53.5416 49.9504 53.1156V49.2305C49.9504 48.8045 50.4893 48.4579 51.1516 48.4579H55.507C56.1694 48.4579 56.7083 48.8045 56.7083 49.2305V53.1156C56.7083 53.5416 56.1694 53.8882 55.507 53.8882ZM51.3582 52.9826H55.3002V49.3633H51.3582V52.9826Z" fill="white"/>
<path id="Vector_18" d="M41.5651 58.5917V48.7811C41.5651 48.3483 42.1105 47.9976 42.7833 47.9976H46.1662C46.839 47.9976 47.3845 48.3483 47.3845 48.7811V58.5917H41.5651Z" fill="#816965"/>
<path id="Vector_19" d="M48.1049 58.5917H46.6638V49.0482C46.6638 48.7253 46.253 48.461 45.7508 48.461H43.1986C42.6943 48.461 42.2855 48.7239 42.2855 49.0482V58.5917H40.8445V48.4353C40.8445 47.9376 41.4718 47.5342 42.2457 47.5342H46.7037C47.4775 47.5342 48.1048 47.9376 48.1048 48.4353V58.5917H48.1049Z" fill="#503837"/>
<path id="Vector_20" d="M43.4425 52.1026C43.8054 52.1026 44.0995 51.9135 44.0995 51.6801C44.0995 51.4467 43.8054 51.2576 43.4425 51.2576C43.0797 51.2576 42.7856 51.4467 42.7856 51.6801C42.7856 51.9135 43.0797 52.1026 43.4425 52.1026Z" fill="white"/>
<path id="Vector_21" d="M58.4368 56.1191H30.5124V58.5915H58.4368V56.1191Z" fill="#654E48"/>
<path id="Vector_22" d="M30.2066 57.6256C30.2066 57.9668 30.1063 58.2924 29.923 58.5917H22.2836C22.1003 58.2924 22 57.9668 22 57.6256C22 57.2933 22.0952 56.9757 22.2697 56.6831C22.8595 55.6906 24.3536 54.9866 26.1034 54.9866C27.8532 54.9866 29.3472 55.6907 29.9371 56.6831C30.1114 56.9758 30.2066 57.2934 30.2066 57.6256Z" fill="url(#paint13_linear_0_1)"/>
<path id="Vector_23" d="M32.8526 57.8909C32.8526 58.1384 32.7798 58.3746 32.6469 58.5917H27.1052C26.9722 58.3747 26.8995 58.1384 26.8995 57.8909C26.8995 57.6499 26.9686 57.4195 27.0951 57.2072C27.523 56.4873 28.6068 55.9766 29.8761 55.9766C31.1455 55.9766 32.2293 56.4873 32.6572 57.2072C32.7835 57.4195 32.8526 57.6499 32.8526 57.8909Z" fill="url(#paint14_linear_0_1)"/>
<path id="Vector_24" d="M66.9455 57.4654C66.9455 57.8632 66.8285 58.2427 66.6149 58.5916H57.7097C57.4962 58.2428 57.3791 57.8632 57.3791 57.4654C57.3791 57.0781 57.4902 56.7079 57.6935 56.3668C58.3811 55.2099 60.1226 54.3892 62.1623 54.3892C64.202 54.3892 65.9435 55.2099 66.6311 56.3668C66.8344 56.7079 66.9455 57.0781 66.9455 57.4654Z" fill="url(#paint15_linear_0_1)"/>
<path id="Vector_25" d="M58.4358 43.116V52.6874L40.4744 41.1351C40.1218 40.9985 39.8848 40.7508 39.8848 40.4674V38.2972C39.8848 36.6705 41.9435 35.347 44.4728 35.347C45.8423 35.347 47.0734 35.7359 47.915 36.3497L58.4358 43.116Z" fill="url(#paint16_linear_0_1)"/>
<path id="Vector_26" d="M56.3894 42.1848H32.9179C32.3582 42.1848 31.9029 42.4777 31.9029 42.8376V45.7357H32.6079V42.8376C32.6079 42.7277 32.747 42.6382 32.9179 42.6382H34.3219V45.7357H35.0269V42.6382H37.1213V45.7357H37.8263V42.6382H39.9208V45.7357H40.6258V42.6382H42.7202V45.7357H43.4252V42.6382H45.5197V45.7357H46.2247V42.6382H48.3192V45.7357H49.0242V42.6382H51.1186V45.7357H51.8236V42.6382H53.9181V45.7357H54.6231V42.6382H56.3891C56.56 42.6382 56.6991 42.7277 56.6991 42.8376V45.7357H57.4041V42.8376C57.4044 42.4777 56.9491 42.1848 56.3894 42.1848Z" fill="#654E48"/>
<path id="Vector_27" d="M59.0145 45.2653V46.7191C59.0145 46.9352 58.7422 47.1103 58.4063 47.1103H30.5392C30.2032 47.1103 29.9309 46.9352 29.9309 46.7191V45.2653C29.9309 45.0493 30.2032 44.8741 30.5392 44.8741H58.4063C58.7422 44.8741 59.0145 45.0493 59.0145 45.2653Z" fill="url(#paint17_linear_0_1)"/>
<path id="Vector_28" d="M63.435 42.107L45.4056 30.5076C44.8917 30.1771 44.0584 30.1771 43.5445 30.5076L25.5105 42.106C25.1743 42.3223 25.1743 42.6728 25.5105 42.8891L26.279 43.3833C26.6153 43.5996 27.1603 43.5996 27.4965 43.3833L44.2299 32.6214C44.3652 32.5344 44.5846 32.5344 44.7199 32.6214L61.4489 43.3843C61.7851 43.6005 62.3302 43.6005 62.6664 43.3843L63.4349 42.89C63.7712 42.6738 63.7712 42.3232 63.435 42.107Z" fill="url(#paint18_linear_0_1)"/>
<path id="Vector_29" d="M45.4055 30.5076C45.1486 30.3424 44.8119 30.2598 44.475 30.2598V32.5562C44.5637 32.5562 44.6524 32.578 44.72 32.6215L61.449 43.3843C61.7852 43.6006 62.3303 43.6006 62.6665 43.3843L63.435 42.8901C63.7712 42.6738 63.7712 42.3233 63.435 42.107L45.4055 30.5076Z" fill="url(#paint19_linear_0_1)"/>
<path id="Vector_30" d="M47.8466 40.7769H41.099C40.833 40.7769 40.6174 40.6382 40.6174 40.4672V38.2973C40.6174 36.9278 42.3436 35.8176 44.4729 35.8176C46.6023 35.8176 48.3285 36.9278 48.3285 38.2973V40.4672C48.3283 40.6382 48.1126 40.7769 47.8466 40.7769Z" fill="#654E48"/>
<path id="Vector_31" d="M44.4728 35.3469C41.9432 35.3469 39.8853 36.6705 39.8853 38.2974V40.4671C39.8853 40.8976 40.4297 41.2478 41.099 41.2478H47.8466C48.5159 41.2478 49.0604 40.8976 49.0604 40.4671V38.2974C49.0603 36.6705 47.0024 35.3469 44.4728 35.3469ZM47.5709 38.0463H45.2049V36.3448C46.4516 36.5382 47.4087 37.2137 47.5709 38.0463ZM43.7406 36.3448V38.0463H41.3746C41.5368 37.2137 42.4938 36.5382 43.7406 36.3448ZM41.3493 38.9879H43.7406V40.3062H41.3493V38.9879ZM45.2049 40.3062V38.9879H47.5962V40.3062H45.2049Z" fill="white"/>
</g>
</g>
</g>
<defs>
<linearGradient id="paint0_linear_0_1" x1="24.2445" y1="31.8138" x2="39.2407" y2="39.9258" gradientUnits="userSpaceOnUse">
<stop stop-color="#E2EDF2"/>
<stop offset="1" stop-color="#9FC7E2"/>
</linearGradient>
<linearGradient id="paint1_linear_0_1" x1="25.9081" y1="30.8384" x2="28.1159" y2="32.0331" gradientUnits="userSpaceOnUse">
<stop stop-color="#E2EDF2"/>
<stop offset="1" stop-color="#9FC7E2"/>
</linearGradient>
<linearGradient id="paint2_linear_0_1" x1="31.9019" y1="36.1827" x2="32.9418" y2="37.7988" gradientUnits="userSpaceOnUse">
<stop stop-color="#816965"/>
<stop offset="1" stop-color="#654E48"/>
</linearGradient>
<linearGradient id="paint3_linear_0_1" x1="28.6976" y1="50.9694" x2="28.6976" y2="58.7207" gradientUnits="userSpaceOnUse">
<stop stop-color="#FFE7A5"/>
<stop offset="0.966" stop-color="#FFBF5C"/>
</linearGradient>
<linearGradient id="paint4_linear_0_1" x1="28.5941" y1="48.9619" x2="28.5941" y2="51.781" gradientUnits="userSpaceOnUse">
<stop stop-color="#FF5D00"/>
<stop offset="1" stop-color="#D54003"/>
</linearGradient>
<linearGradient id="paint5_linear_0_1" x1="60.2469" y1="50.9694" x2="60.2469" y2="58.7207" gradientUnits="userSpaceOnUse">
<stop stop-color="#FFE7A5"/>
<stop offset="0.966" stop-color="#FFBF5C"/>
</linearGradient>
<linearGradient id="paint6_linear_0_1" x1="60.0001" y1="57.0584" x2="53.2645" y2="47.7254" gradientUnits="userSpaceOnUse">
<stop stop-color="#FF5D00" stop-opacity="0"/>
<stop offset="1" stop-color="#D54003"/>
</linearGradient>
<linearGradient id="paint7_linear_0_1" x1="60.3505" y1="48.9619" x2="60.3505" y2="51.781" gradientUnits="userSpaceOnUse">
<stop stop-color="#FF5D00"/>
<stop offset="1" stop-color="#D54003"/>
</linearGradient>
<linearGradient id="paint8_linear_0_1" x1="44.474" y1="45.3475" x2="44.474" y2="64.3624" gradientUnits="userSpaceOnUse">
<stop stop-color="#FFE7A5"/>
<stop offset="0.966" stop-color="#FFBF5C"/>
<stop offset="1" stop-color="#DB9E36"/>
</linearGradient>
<linearGradient id="paint9_linear_0_1" x1="41.4565" y1="39.1096" x2="36.7263" y2="31.7548" gradientUnits="userSpaceOnUse">
<stop stop-color="#FF5D00" stop-opacity="0"/>
<stop offset="1" stop-color="#D54003"/>
</linearGradient>
<linearGradient id="paint10_linear_0_1" x1="45.5251" y1="50.3432" x2="44.1972" y2="37.5269" gradientUnits="userSpaceOnUse">
<stop stop-color="#FF5D00" stop-opacity="0"/>
<stop offset="1" stop-color="#D54003"/>
</linearGradient>
<linearGradient id="paint11_linear_0_1" x1="41.2266" y1="54.6716" x2="33.8549" y2="43.2095" gradientUnits="userSpaceOnUse">
<stop stop-color="#FF5D00" stop-opacity="0"/>
<stop offset="1" stop-color="#D54003"/>
</linearGradient>
<linearGradient id="paint12_linear_0_1" x1="56.6992" y1="53.3407" x2="51.9793" y2="46.0019" gradientUnits="userSpaceOnUse">
<stop stop-color="#FF5D00" stop-opacity="0"/>
<stop offset="1" stop-color="#D54003"/>
</linearGradient>
<linearGradient id="paint13_linear_0_1" x1="23.7892" y1="55.9827" x2="26.7525" y2="60.5897" gradientUnits="userSpaceOnUse">
<stop stop-color="#9EB644"/>
<stop offset="1" stop-color="#738611"/>
</linearGradient>
<linearGradient id="paint14_linear_0_1" x1="28.1972" y1="56.699" x2="30.3467" y2="60.0412" gradientUnits="userSpaceOnUse">
<stop stop-color="#9EB644"/>
<stop offset="1" stop-color="#738611"/>
</linearGradient>
<linearGradient id="paint15_linear_0_1" x1="59.4642" y1="55.5502" x2="62.9178" y2="60.9208" gradientUnits="userSpaceOnUse">
<stop stop-color="#9EB644"/>
<stop offset="1" stop-color="#738611"/>
</linearGradient>
<linearGradient id="paint16_linear_0_1" x1="50.8878" y1="43.06" x2="43.331" y2="31.3101" gradientUnits="userSpaceOnUse">
<stop stop-color="#FF5D00" stop-opacity="0"/>
<stop offset="1" stop-color="#D54003"/>
</linearGradient>
<linearGradient id="paint17_linear_0_1" x1="44.4723" y1="45.1124" x2="44.4723" y2="48.0789" gradientUnits="userSpaceOnUse">
<stop stop-color="#FF5D00"/>
<stop offset="1" stop-color="#D54003"/>
</linearGradient>
<linearGradient id="paint18_linear_0_1" x1="44.4723" y1="38.1058" x2="44.4723" y2="48.1769" gradientUnits="userSpaceOnUse">
<stop stop-color="#FF5D00"/>
<stop offset="1" stop-color="#D54003"/>
</linearGradient>
<linearGradient id="paint19_linear_0_1" x1="57.9408" y1="39.8939" x2="52.4019" y2="31.2818" gradientUnits="userSpaceOnUse">
<stop stop-color="#FF5D00" stop-opacity="0"/>
<stop offset="1" stop-color="#D54003"/>
</linearGradient>
<clipPath id="clip0_0_1">
<rect width="1440" height="3536" fill="white" transform="translate(-286 -920)"/>
</clipPath>
</defs>
</svg>
